<?xml version="1.0" encoding="utf-8"?>
<!-- Generator: Adobe Illustrator 15.0.0, SVG Export Plug-In . SVG Version: 6.00 Build 0)  -->
<!DOCTYPE svg PUBLIC "-//W3C//DTD SVG 1.1//EN" "http://www.w3.org/Graphics/SVG/1.1/DTD/svg11.dtd">
<svg version="1.1" id="Layer_1" xmlns="http://www.w3.org/2000/svg" xmlns:xlink="http://www.w3.org/1999/xlink" x="0px" y="0px"
	 width="100px" height="100px" viewBox="370.945 247.64 100 100" enable-background="new 370.945 247.64 100 100"
	 xml:space="preserve">
<g>
	<path fill="#231F20" d="M467.634,331.061h-93.378c-0.782,0-1.414-0.632-1.414-1.413v-64.014c0-0.781,0.632-1.415,1.414-1.415
		h93.378c0.781,0,1.413,0.634,1.413,1.415v64.014C469.047,330.429,468.415,331.061,467.634,331.061z M375.672,328.232h90.548
		v-61.184h-90.548V328.232z"/>
	<path fill="#231F20" d="M420.947,314.029c-0.361,0-0.726-0.137-1-0.413l-46.102-46.103c-0.554-0.553-0.554-1.446,0-1.999
		c0.553-0.553,1.446-0.553,2,0l45.102,45.102l45.102-45.102c0.552-0.553,1.446-0.553,1.999,0c0.554,0.553,0.554,1.446,0,1.999
		l-46.101,46.103C421.669,313.892,421.308,314.029,420.947,314.029z"/>
</g>
</svg>
